# xmcd
#
# Track frame offsets: 
#        150
#        15419
#        29181
#        41145
#        54938
#        68081
#        77990
#        87590
#        100086
#        112655
#        126304
#        140721
#        153916
#        167405
#        181118
#        194822
#        208043
#        221241
#        235451
#        249367
#        263095
#        274966
#        289996
#        302397
#
# Disc length: 4293 seconds
#
# Revision: 2
# Processed by: cddbd v1.5.2PL0 Copyright (c) Steve Scherf et al.
# Submitted via: ExactAudioCopy v0.95b4
#
DISCID=6110c318
DTITLE=Homer translated by Fitzgerald - The Iliad
DYEAR=1994
DGENRE=Audio Book
TTITLE0=Book 05 m
TTITLE1=Book 05 n
TTITLE2=Book 05 o
TTITLE3=Book 05 p
TTITLE4=Book 05 q
TTITLE5=Book 05 r
TTITLE6=Book 05 s
TTITLE7=Book 06 a
TTITLE8=Book 06 b
TTITLE9=Book 06 c
TTITLE10=Book 06 d
TTITLE11=Book 06 e
TTITLE12=Book 06 f
TTITLE13=Book 06 g
TTITLE14=Book 06 h
TTITLE15=Book 06 i
TTITLE16=Book 06 j
TTITLE17=Book 06 k
TTITLE18=Book 07 a
TTITLE19=Book 07 b
TTITLE20=Book 07 c
TTITLE21=Book 07 d
TTITLE22=Book 07 e
TTITLE23=Book 07 f
EXTD=
EXTT0=
EXTT1=
EXTT2=
EXTT3=
EXTT4=
EXTT5=
EXTT6=
EXTT7=
EXTT8=
EXTT9=
EXTT10=
EXTT11=
EXTT12=
EXTT13=
EXTT14=
EXTT15=
EXTT16=
EXTT17=
EXTT18=
EXTT19=
EXTT20=
EXTT21=
EXTT22=
EXTT23=
PLAYORDER=
